<mxfile host="app.diagrams.net" modified="2024-07-11T06:33:12.824Z" agent="Mozilla/5.0 (Windows NT 10.0; Win64; x64) AppleWebKit/537.36 (KHTML, like Gecko) Chrome/126.0.0.0 Safari/537.36" etag="aEoVwhYqJYGsUCHMXewv" version="24.6.4" type="github">
  <diagram name="第 1 页" id="YH-8w1ckmwI2dBei4iAS">
    <mxGraphModel dx="848" dy="556" grid="1" gridSize="10" guides="1" tooltips="1" connect="1" arrows="1" fold="1" page="1" pageScale="1" pageWidth="827" pageHeight="1169" math="0" shadow="0">
      <root>
        <mxCell id="0" />
        <mxCell id="1" parent="0" />
        <mxCell id="KozJv-H7DPmL8cgdY7BB-1" value="" style="rounded=0;whiteSpace=wrap;html=1;" parent="1" vertex="1">
          <mxGeometry x="120" y="80" width="320" height="240" as="geometry" />
        </mxCell>
        <mxCell id="KozJv-H7DPmL8cgdY7BB-2" value="VMware ESXi(物理服务器)" style="text;html=1;align=center;verticalAlign=middle;resizable=0;points=[];autosize=1;strokeColor=none;fillColor=none;" parent="1" vertex="1">
          <mxGeometry x="195" y="50" width="170" height="30" as="geometry" />
        </mxCell>
        <mxCell id="KozJv-H7DPmL8cgdY7BB-5" style="edgeStyle=orthogonalEdgeStyle;rounded=0;orthogonalLoop=1;jettySize=auto;html=1;exitX=1;exitY=0.25;exitDx=0;exitDy=0;entryX=0;entryY=0.25;entryDx=0;entryDy=0;" parent="1" source="KozJv-H7DPmL8cgdY7BB-3" target="KozJv-H7DPmL8cgdY7BB-4" edge="1">
          <mxGeometry relative="1" as="geometry" />
        </mxCell>
        <mxCell id="KozJv-H7DPmL8cgdY7BB-3" value="&lt;div&gt;虚拟机1&lt;/div&gt;&lt;div&gt;(ubuntu16)&lt;/div&gt;" style="rounded=1;whiteSpace=wrap;html=1;" parent="1" vertex="1">
          <mxGeometry x="140" y="110" width="80" height="180" as="geometry" />
        </mxCell>
        <mxCell id="KozJv-H7DPmL8cgdY7BB-7" style="edgeStyle=orthogonalEdgeStyle;rounded=0;orthogonalLoop=1;jettySize=auto;html=1;exitX=0;exitY=0.75;exitDx=0;exitDy=0;entryX=1;entryY=0.75;entryDx=0;entryDy=0;" parent="1" source="KozJv-H7DPmL8cgdY7BB-4" target="KozJv-H7DPmL8cgdY7BB-3" edge="1">
          <mxGeometry relative="1" as="geometry" />
        </mxCell>
        <mxCell id="KozJv-H7DPmL8cgdY7BB-4" value="&lt;div&gt;虚拟机2&lt;/div&gt;&lt;div&gt;(ubuntu22)&lt;/div&gt;" style="rounded=1;whiteSpace=wrap;html=1;" parent="1" vertex="1">
          <mxGeometry x="340" y="110" width="80" height="180" as="geometry" />
        </mxCell>
        <mxCell id="KozJv-H7DPmL8cgdY7BB-6" value="请求" style="text;html=1;align=center;verticalAlign=middle;whiteSpace=wrap;rounded=0;" parent="1" vertex="1">
          <mxGeometry x="250" y="130" width="60" height="30" as="geometry" />
        </mxCell>
        <mxCell id="KozJv-H7DPmL8cgdY7BB-8" value="响应" style="text;html=1;align=center;verticalAlign=middle;whiteSpace=wrap;rounded=0;" parent="1" vertex="1">
          <mxGeometry x="250" y="240" width="60" height="30" as="geometry" />
        </mxCell>
      </root>
    </mxGraphModel>
  </diagram>
</mxfile>
